<svg width="28" height="20" viewBox="0 0 28 20" fill="none" xmlns="http://www.w3.org/2000/svg">
<path fill-rule="evenodd" clip-rule="evenodd" d="M27.75 2.25C27.75 1.42157 27.0784 0.75 26.25 0.75H2.25C1.42157 0.75 0.75 1.42157 0.75 2.25C0.75 3.07843 1.42157 3.75 2.25 3.75H26.25C27.0784 3.75 27.75 3.07843 27.75 2.25ZM27.75 10.25C27.75 9.42157 27.0784 8.75 26.25 8.75H2.25C1.42157 8.75 0.75 9.42157 0.75 10.25C0.75 11.0784 1.42157 11.75 2.25 11.75H26.25C27.0784 11.75 27.75 11.0784 27.75 10.25ZM26.25 16.75C27.0784 16.75 27.75 17.4216 27.75 18.25C27.75 19.0784 27.0784 19.75 26.25 19.75H2.25C1.42157 19.75 0.75 19.0784 0.75 18.25C0.75 17.4216 1.42157 16.75 2.25 16.75H26.25Z" fill="white"/>
</svg>
