<svg width="40" height="40" viewBox="0 0 40 40" fill="none" xmlns="http://www.w3.org/2000/svg">
<path d="M20 40C9.03164 40 0 30.9535 0 20.0096C0 9.04648 9.03164 0 19.9808 0C30.9492 0 40 9.04648 40 20.0096C40 30.9535 30.9684 40 20 40ZM20 19.2813C22.7804 19.3004 25.0431 16.9238 25.0431 13.7805C25.0431 10.8481 22.7804 8.41399 20 8.41399C17.2196 8.41399 14.9569 10.8481 14.9569 13.7805C14.9569 16.9238 17.2196 19.2621 20 19.2813ZM11.371 29.9377H28.6481C29.5877 29.9377 30.0288 29.2861 30.0288 28.4619C30.0288 26.3153 26.9032 20.8146 20 20.8146C13.0968 20.8146 9.97124 26.3153 9.97124 28.4619C9.97124 29.2861 10.4314 29.9377 11.371 29.9377Z" fill="white" fill-opacity="0.85"/>
</svg>
